# xmcd CD database file
#
# Track frame offsets:
#	150
#	9208
#	16579
#	28623
#	33668
#	44509
#	50988
#	61070
#	73948
#	84840
#
# Disc length: 1198 seconds
#
# Revision: 0
# Processed by: cddbd v1.5.2PL0 Copyright (c) Steve Scherf et al.
# Submitted via: CDex 1.51
#
DISCID=7804ac0a
DTITLE=Jim Reeves - How's The World Treating You
DYEAR=2006
DGENRE=Country
TTITLE0=Billy Bayou
TTITLE1=Blue Boy
TTITLE2=Am I Losing You
TTITLE3=According To My Heart
TTITLE4=I Love You More
TTITLE5=I'm Beginning To Forget You
TTITLE6=Just Call Me Lonesome
TTITLE7=How's The World Treating You
TTITLE8=If Heartaches Are The Fashion
TTITLE9=I'll Always Love You
EXTD=YEAR: 2006
EXTT0=
EXTT1=
EXTT2=
EXTT3=
EXTT4=
EXTT5=
EXTT6=
EXTT7=
EXTT8=
EXTT9=
PLAYORDER=
